# Created with Anim8or 0.97d beta
# Object "object01":

mtllib sphere.mtl

# Shape "mesh01":
g mesh01
# No. points 118:
v -0.14514 -14.744 0.00001
v 5.35827 -13.6493 0.00001
v 10.0238 -10.5318 0.00001
v 13.1413 -5.86626 0.00001
v 14.236 -0.36285 0.00001
v 13.1413 5.14057 0.00001
v 10.0238 9.80613 0.00001
v 5.35827 12.9236 0.00001
v -0.14514 14.0183 0.00001
v 4.62096 -13.6493 -2.7517
v 8.66146 -10.5318 -5.08448
v 11.3612 -5.86626 -6.6432
v 12.3093 -0.36285 -7.19055
v 11.3612 5.14057 -6.6432
v 8.66146 9.80613 -5.08448
v 4.62096 12.9236 -2.7517
v 2.60657 -13.6493 -4.76609
v 4.93935 -10.5318 -8.80659
v 6.49807 -5.86626 -11.5064
v 7.04541 -0.36285 -12.4544
v 6.49807 5.14057 -11.5064
v 4.93935 9.80613 -8.80659
v 2.60657 12.9236 -4.76609
v -0.14514 -13.6493 -5.5034
v -0.14514 -10.5318 -10.169
v -0.14514 -5.86626 -13.2864
v -0.14514 -0.36285 -14.3811
v -0.14514 5.14057 -13.2864
v -0.14514 9.80613 -10.169
v -0.14514 12.9236 -5.5034
v -2.89684 -13.6493 -4.76609
v -5.22963 -10.5318 -8.80659
v -6.78834 -5.86626 -11.5064
v -7.33569 -0.36285 -12.4544
v -6.78834 5.14057 -11.5064
v -5.22963 9.80613 -8.80659
v -2.89684 12.9236 -4.76609
v -4.91123 -13.6493 -2.7517
v -8.95173 -10.5318 -5.08448
v -11.6515 -5.86626 -6.6432
v -12.5995 -0.36285 -7.19055
v -11.6515 5.14057 -6.6432
v -8.95173 9.80613 -5.08448
v -4.91123 12.9236 -2.7517
v -5.64855 -13.6493 0.00001
v -10.3141 -10.5318 0.00001
v -13.4315 -5.86626 0.00001
v -14.5262 -0.36285 0.00001
v -13.4315 5.14057 0.00001
v -10.3141 9.80613 0.00001
v -5.64855 12.9236 0.00001
v -4.91123 -13.6493 2.75171
v -8.95173 -10.5318 5.0845
v -11.6515 -5.86626 6.64321
v -12.5995 -0.36285 7.19056
v -11.6515 5.14057 6.64321
v -8.95173 9.80613 5.0845
v -4.91123 12.9236 2.75171
v -2.89684 -13.6493 4.7661
v -5.22963 -10.5318 8.8066
v -6.78834 -5.86626 11.5064
v -7.33569 -0.36285 12.4544
v -6.78834 5.14057 11.5064
v -5.22963 9.80613 8.8066
v -2.89684 12.9236 4.7661
v -0.14514 -13.6493 5.50342
v -0.14514 -10.5318 10.169
v -0.14514 -5.86626 13.2864
v -0.14514 -0.36285 14.3811
v -0.14514 5.14057 13.2864
v -0.14514 9.80613 10.169
v -0.14514 12.9236 5.50342
v 2.60657 -13.6493 4.7661
v 4.93935 -10.5318 8.8066
v 6.49807 -5.86626 11.5064
v 7.04541 -0.36285 12.4544
v 6.49807 5.14057 11.5064
v 4.93935 9.80613 8.8066
v 2.60657 12.9236 4.7661
v 4.62096 -13.6493 2.75171
v 8.66146 -10.5318 5.0845
v 11.3612 -5.86626 6.64321
v 12.3093 -0.36285 7.19056
v 11.3612 5.14057 6.64321
v 8.66146 9.80613 5.0845
v 4.62096 12.9236 2.75171
v 28.0033 20.3306 23.2852
v 23.1401 20.3306 28.1484
v 21.5814 24.9961 25.4486
v 25.3035 24.9961 21.7265
v 24.4412 -24.9348 20.8642
v 20.7191 -24.9348 24.5863
v 22.2778 -20.2692 27.2861
v 27.141 -20.2692 22.423
v -22.913 19.8583 27.631
v -27.7762 19.8583 22.7679
v -25.0764 24.5239 21.2092
v -21.3543 24.5239 24.9313
v -19.4573 -23.5181 23.0342
v -23.1794 -23.5181 19.3121
v -25.8791 -18.8525 20.8709
v -21.016 -18.8525 25.734
v 21.8401 -25.9579 -25.7073
v 25.5622 -25.9579 -21.9852
v 28.2619 -21.2924 -23.5439
v 23.3988 -21.2924 -28.4071
v -25.8524 -25.9579 -21.9852
v -22.1303 -25.9579 -25.7073
v -23.6891 -21.2924 -28.4071
v -28.5522 -21.2924 -23.5439
v 23.3988 20.5667 -28.4071
v 28.2619 20.5667 -23.5439
v 25.5622 25.2322 -21.9852
v 21.8401 25.2322 -25.7073
v -28.5522 20.5667 -23.5439
v -23.6891 20.5667 -28.4071
v -22.1303 25.2322 -25.7073
v -25.8524 25.2322 -21.9852

# No. normals 374:
vn 0.19482 -0.97945 -0.05220
vn 0.14262 -0.97945 -0.14262
vn 0.05220 -0.97945 -0.19482
vn -0.05220 -0.97945 -0.19482
vn -0.14262 -0.97945 -0.14262
vn -0.19482 -0.97945 -0.05220
vn -0.19482 -0.97945 0.05220
vn -0.14262 -0.97945 0.14262
vn -0.05220 -0.97945 0.19482
vn 0.05220 -0.97945 0.19482
vn 0.14262 -0.97945 0.14262
vn 0.19482 -0.97945 0.05220
vn 0.54951 -0.82241 -0.14724
vn 0.40227 -0.82241 -0.40227
vn 0.14724 -0.82241 -0.54951
vn -0.14724 -0.82241 -0.54951
vn -0.40227 -0.82241 -0.40227
vn -0.54951 -0.82241 -0.14724
vn -0.54951 -0.82241 0.14724
vn -0.40227 -0.82241 0.40227
vn -0.14724 -0.82241 0.54951
vn 0.14724 -0.82241 0.54951
vn 0.40227 -0.82241 0.40227
vn 0.54951 -0.82241 0.14724
vn 0.81157 -0.54227 -0.21746
vn 0.21746 -0.54228 -0.81157
vn -0.21746 -0.54227 -0.81157
vn -0.81157 -0.54228 -0.21746
vn -0.81157 -0.54227 0.21746
vn -0.21746 -0.54228 0.81157
vn 0.21746 -0.54227 0.81157
vn 0.81157 -0.54228 0.21746
vn 0.94858 -0.18868 -0.25417
vn 0.69441 -0.18868 -0.69441
vn 0.25417 -0.18868 -0.94858
vn -0.25417 -0.18868 -0.94858
vn -0.69441 -0.18868 -0.69441
vn -0.94858 -0.18868 -0.25417
vn -0.94858 -0.18868 0.25417
vn -0.69441 -0.18868 0.69441
vn -0.25417 -0.18868 0.94858
vn 0.25417 -0.18868 0.94858
vn 0.69441 -0.18868 0.69441
vn 0.94858 -0.18868 0.25417
vn 0.94858 0.18868 -0.25417
vn 0.69441 0.18868 -0.69441
vn 0.25417 0.18868 -0.94858
vn -0.25417 0.18868 -0.94858
vn -0.69441 0.18868 -0.69441
vn -0.94858 0.18868 -0.25417
vn -0.94858 0.18868 0.25417
vn -0.69441 0.18868 0.69441
vn -0.25417 0.18868 0.94858
vn 0.25417 0.18868 0.94858
vn 0.69441 0.18868 0.69441
vn 0.94858 0.18868 0.25417
vn 0.81157 0.54227 -0.21746
vn 0.21746 0.54228 -0.81157
vn -0.21746 0.54227 -0.81157
vn -0.81157 0.54228 -0.21746
vn -0.81157 0.54227 0.21746
vn -0.21746 0.54228 0.81157
vn 0.21746 0.54227 0.81157
vn 0.81157 0.54228 0.21746
vn 0.54951 0.82241 -0.14724
vn 0.40227 0.82241 -0.40227
vn 0.14724 0.82241 -0.54951
vn -0.14724 0.82241 -0.54951
vn -0.40227 0.82241 -0.40227
vn -0.54951 0.82241 -0.14724
vn -0.54951 0.82241 0.14724
vn -0.40227 0.82241 0.40227
vn -0.14724 0.82241 0.54951
vn 0.14724 0.82241 0.54951
vn 0.40227 0.82241 0.40227
vn 0.54951 0.82241 0.14724
vn 0.19482 0.97945 -0.05220
vn 0.14262 0.97945 -0.14262
vn 0.05220 0.97945 -0.19482
vn -0.05220 0.97945 -0.19482
vn -0.14262 0.97945 -0.14262
vn -0.19482 0.97945 -0.05220
vn -0.19482 0.97945 0.05220
vn -0.14262 0.97945 0.14262
vn -0.05220 0.97945 0.19482
vn 0.05220 0.97945 0.19482
vn 0.14262 0.97945 0.14262
vn 0.19482 0.97945 0.05220
vn 0.64462 0.12081 -0.75490
vn 0.38345 -0.84020 0.38345
vn -0.75490 0.12081 0.64462
vn -0.38345 0.84020 -0.38345
vn 0.59411 0.54228 0.59411
vn 0.64462 -0.12081 -0.75490
vn -0.38345 -0.84020 -0.38345
vn -0.75490 -0.12081 0.64462
vn 0.38345 0.84020 0.38345
vn 0.59411 -0.54228 0.59411
vn 0.75490 0.12081 0.64462
vn -0.38345 -0.84020 0.38345
vn -0.64462 0.12081 -0.75490
vn 0.38345 0.84020 -0.38345
vn -0.59411 0.54228 0.59411
vn 0.75490 -0.12081 0.64462
vn 0.38345 -0.84020 -0.38345
vn -0.64462 -0.12081 -0.75490
vn -0.38345 0.84020 0.38345
vn -0.59411 -0.54228 0.59411
vn -0.75490 -0.12081 -0.64462
vn -0.38345 -0.84020 0.38345
vn 0.64462 -0.12081 0.75490
vn 0.38345 0.84020 -0.38345
vn 0.59411 -0.54228 -0.59411
vn -0.64462 -0.12081 0.75490
vn 0.38345 -0.84020 0.38345
vn 0.75490 -0.12081 -0.64462
vn -0.38345 0.84020 -0.38345
vn -0.59411 -0.54228 -0.59411
vn -0.75490 0.12081 -0.64462
vn 0.38345 -0.84020 -0.38345
vn 0.64462 0.12081 0.75490
vn -0.38345 0.84020 0.38345
vn 0.59411 0.54228 -0.59411
vn -0.64462 0.12081 0.75490
vn -0.38345 -0.84020 -0.38345
vn 0.75490 0.12081 -0.64462
vn 0.38345 0.84020 0.38345
vn -0.59411 0.54228 -0.59411
vn 0 -1 0
vn 0.38180 -0.92424 0
vn 0.70617 -0.70804 0
vn 0.92353 -0.38353 0
vn 1 0 0
vn 0.92353 0.38353 0
vn 0.70617 0.70804 0
vn 0.38180 0.92424 0
vn 0 1 0
vn 0.33065 -0.92424 -0.19090
vn 0.60550 -0.75100 -0.26336
vn 0.64462 -0.12081 0.75490
vn -0.38345 -0.84020 0.38345
vn 0.85559 -0.32056 -0.40645
vn 0.38345 0.84020 -0.38345
vn 0.64462 -0.12081 0.75490
vn 0.86603 0 -0.50000
vn 0.85559 0.32056 -0.40645
vn 0.64462 0.12081 0.75490
vn 0.38345 -0.84020 -0.38345
vn 0.60550 0.75100 -0.26336
vn -0.38345 0.84020 0.38345
vn 0.64462 0.12081 0.75490
vn 0.33065 0.92424 -0.19090
vn 0.19090 -0.92424 -0.33065
vn 0.26336 -0.75100 -0.60550
vn -0.38345 -0.84020 0.38345
vn -0.75490 -0.12081 -0.64462
vn 0.40645 -0.32056 -0.85559
vn 0.38345 0.84020 -0.38345
vn -0.75490 -0.12081 -0.64462
vn 0.50000 0 -0.86603
vn 0.40645 0.32056 -0.85559
vn 0.38345 -0.84020 -0.38345
vn -0.75490 0.12081 -0.64462
vn 0.26336 0.75100 -0.60550
vn -0.38345 0.84020 0.38345
vn -0.75490 0.12081 -0.64462
vn 0.19090 0.92424 -0.33065
vn 0 -0.92424 -0.38180
vn 0 -0.70804 -0.70617
vn 0 -0.38353 -0.92353
vn 0 0 -1
vn 0 0.38353 -0.92353
vn 0 0.70804 -0.70617
vn 0 0.92424 -0.38180
vn -0.19090 -0.92424 -0.33065
vn -0.26336 -0.75100 -0.60550
vn 0.75490 -0.12081 -0.64462
vn 0.38345 -0.84020 0.38345
vn -0.40645 -0.32056 -0.85559
vn -0.38345 0.84020 -0.38345
vn 0.75490 -0.12081 -0.64462
vn -0.50000 0 -0.86603
vn -0.40645 0.32056 -0.85559
vn 0.75490 0.12081 -0.64462
vn -0.38345 -0.84020 -0.38345
vn -0.26336 0.75100 -0.60550
vn 0.38345 0.84020 0.38345
vn 0.75490 0.12081 -0.64462
vn -0.19090 0.92424 -0.33065
vn -0.33065 -0.92424 -0.19090
vn -0.60550 -0.75100 -0.26336
vn 0.38345 -0.84020 0.38345
vn -0.64462 -0.12081 0.75490
vn -0.85559 -0.32056 -0.40645
vn -0.38345 0.84020 -0.38345
vn -0.64462 -0.12081 0.75490
vn -0.86603 0 -0.50000
vn -0.85559 0.32056 -0.40645
vn -0.38345 -0.84020 -0.38345
vn -0.64462 0.12081 0.75490
vn -0.60550 0.75100 -0.26336
vn 0.38345 0.84020 0.38345
vn -0.64462 0.12081 0.75490
vn -0.33065 0.92424 -0.19090
vn -0.38180 -0.92424 0
vn -0.70617 -0.70804 0
vn -0.92353 -0.38353 0
vn -1 0 0
vn -0.92353 0.38353 0
vn -0.70617 0.70804 0
vn -0.38180 0.92424 0
vn -0.33065 -0.92424 0.19090
vn -0.60550 -0.75100 0.26336
vn -0.64462 -0.12081 -0.75490
vn 0.38345 -0.84020 -0.38345
vn -0.85559 -0.32056 0.40645
vn -0.38345 0.84020 0.38345
vn -0.64462 -0.12081 -0.75490
vn -0.86603 0 0.50000
vn -0.85559 0.32056 0.40645
vn -0.64462 0.12081 -0.75490
vn -0.38345 -0.84020 0.38345
vn -0.60550 0.75100 0.26336
vn 0.38345 0.84020 -0.38345
vn -0.64462 0.12081 -0.75490
vn -0.33065 0.92424 0.19090
vn -0.19090 -0.92424 0.33065
vn -0.26336 -0.75100 0.60550
vn 0.38345 -0.84020 -0.38345
vn 0.75490 -0.12081 0.64462
vn -0.40645 -0.32056 0.85559
vn -0.38345 0.84020 0.38345
vn 0.75490 -0.12081 0.64462
vn -0.50000 0 0.86603
vn -0.40645 0.32056 0.85559
vn -0.38345 -0.84020 0.38345
vn 0.75490 0.12081 0.64462
vn -0.26336 0.75100 0.60550
vn 0.38345 0.84020 -0.38345
vn 0.75490 0.12081 0.64462
vn -0.19090 0.92424 0.33065
vn 0 -0.92424 0.38180
vn 0 -0.70804 0.70617
vn 0 -0.38353 0.92353
vn 0 0 1
vn 0 0.38353 0.92353
vn 0 0.70804 0.70617
vn 0 0.92424 0.38180
vn 0.19090 -0.92424 0.33065
vn 0.26336 -0.75100 0.60550
vn -0.75490 -0.12081 0.64462
vn -0.38345 -0.84020 -0.38345
vn 0.40645 -0.32056 0.85559
vn 0.38345 0.84020 0.38345
vn -0.75490 -0.12081 0.64462
vn 0.50000 0 0.86603
vn 0.40645 0.32056 0.85559
vn -0.75490 0.12081 0.64462
vn 0.38345 -0.84020 0.38345
vn 0.26336 0.75100 0.60550
vn -0.38345 0.84020 -0.38345
vn -0.75490 0.12081 0.64462
vn 0.19090 0.92424 0.33065
vn 0.33065 -0.92424 0.19090
vn 0.60550 -0.75100 0.26336
vn -0.38345 -0.84020 -0.38345
vn 0.64462 -0.12081 -0.75490
vn 0.85559 -0.32056 0.40645
vn 0.38345 0.84020 0.38345
vn 0.64462 -0.12081 -0.75490
vn 0.86603 0 0.50000
vn 0.85559 0.32056 0.40645
vn 0.38345 -0.84020 0.38345
vn 0.64462 0.12081 -0.75490
vn 0.60550 0.75100 0.26336
vn -0.38345 0.84020 -0.38345
vn 0.64462 0.12081 -0.75490
vn 0.33065 0.92424 0.19090
vn 0.64462 0.12081 -0.75490
vn 0.59411 0.54228 0.59411
vn 0.38345 -0.84020 0.38345
vn 0.38345 -0.84020 0.38345
vn 0.59411 0.54228 0.59411
vn -0.75490 0.12081 0.64462
vn -0.75490 0.12081 0.64462
vn 0.59411 0.54228 0.59411
vn -0.38345 0.84020 -0.38345
vn 0.64462 0.12081 -0.75490
vn 0.59411 0.54228 0.59411
vn -0.38345 0.84020 -0.38345
vn 0.64462 -0.12081 -0.75490
vn 0.59411 -0.54228 0.59411
vn -0.38345 -0.84020 -0.38345
vn -0.38345 -0.84020 -0.38345
vn 0.59411 -0.54228 0.59411
vn -0.75490 -0.12081 0.64462
vn -0.75490 -0.12081 0.64462
vn 0.59411 -0.54228 0.59411
vn 0.38345 0.84020 0.38345
vn 0.64462 -0.12081 -0.75490
vn 0.59411 -0.54228 0.59411
vn 0.38345 0.84020 0.38345
vn 0.75490 0.12081 0.64462
vn -0.59411 0.54228 0.59411
vn -0.38345 -0.84020 0.38345
vn -0.38345 -0.84020 0.38345
vn -0.59411 0.54228 0.59411
vn -0.64462 0.12081 -0.75490
vn -0.64462 0.12081 -0.75490
vn -0.59411 0.54228 0.59411
vn 0.38345 0.84020 -0.38345
vn 0.75490 0.12081 0.64462
vn -0.59411 0.54228 0.59411
vn 0.38345 0.84020 -0.38345
vn 0.75490 -0.12081 0.64462
vn -0.59411 -0.54228 0.59411
vn 0.38345 -0.84020 -0.38345
vn 0.38345 -0.84020 -0.38345
vn -0.59411 -0.54228 0.59411
vn -0.64462 -0.12081 -0.75490
vn -0.64462 -0.12081 -0.75490
vn -0.59411 -0.54228 0.59411
vn -0.38345 0.84020 0.38345
vn 0.75490 -0.12081 0.64462
vn -0.59411 -0.54228 0.59411
vn -0.38345 0.84020 0.38345
vn -0.75490 -0.12081 -0.64462
vn 0.59411 -0.54228 -0.59411
vn -0.38345 -0.84020 0.38345
vn -0.38345 -0.84020 0.38345
vn 0.59411 -0.54228 -0.59411
vn 0.64462 -0.12081 0.75490
vn 0.64462 -0.12081 0.75490
vn 0.59411 -0.54228 -0.59411
vn 0.38345 0.84020 -0.38345
vn -0.75490 -0.12081 -0.64462
vn 0.59411 -0.54228 -0.59411
vn 0.38345 0.84020 -0.38345
vn -0.64462 -0.12081 0.75490
vn -0.59411 -0.54228 -0.59411
vn 0.38345 -0.84020 0.38345
vn 0.38345 -0.84020 0.38345
vn -0.59411 -0.54228 -0.59411
vn 0.75490 -0.12081 -0.64462
vn 0.75490 -0.12081 -0.64462
vn -0.59411 -0.54228 -0.59411
vn -0.38345 0.84020 -0.38345
vn -0.64462 -0.12081 0.75490
vn -0.59411 -0.54228 -0.59411
vn -0.38345 0.84020 -0.38345
vn -0.75490 0.12081 -0.64462
vn 0.59411 0.54228 -0.59411
vn 0.38345 -0.84020 -0.38345
vn 0.38345 -0.84020 -0.38345
vn 0.59411 0.54228 -0.59411
vn 0.64462 0.12081 0.75490
vn 0.64462 0.12081 0.75490
vn 0.59411 0.54228 -0.59411
vn -0.38345 0.84020 0.38345
vn -0.75490 0.12081 -0.64462
vn 0.59411 0.54228 -0.59411
vn -0.38345 0.84020 0.38345
vn -0.64462 0.12081 0.75490
vn -0.59411 0.54228 -0.59411
vn -0.38345 -0.84020 -0.38345
vn -0.38345 -0.84020 -0.38345
vn -0.59411 0.54228 -0.59411
vn 0.75490 0.12081 -0.64462
vn 0.75490 0.12081 -0.64462
vn -0.59411 0.54228 -0.59411
vn 0.38345 0.84020 0.38345
vn -0.64462 0.12081 0.75490
vn -0.59411 0.54228 -0.59411
vn 0.38345 0.84020 0.38345

# No. texture coordinates 115:
vt 0 0
vt 0 0.12500
vt 0 0.25000
vt 0 0.37500
vt 0 0.50000
vt 0 0.62500
vt 0 0.75000
vt 0 0.87500
vt 0 1
vt 0.08333 0
vt 0.08333 0.12500
vt 0.08333 0.25000
vt 0.08333 0.37500
vt 0.08333 0.50000
vt 0.08333 0.62500
vt 0.08333 0.75000
vt 0.08333 0.87500
vt 0.08333 1
vt 0.16667 0
vt 0.16667 0.12500
vt 0.16667 0.25000
vt 0.16667 0.37500
vt 0.16667 0.50000
vt 0.16667 0.62500
vt 0.16667 0.75000
vt 0.16667 0.87500
vt 0.16667 1
vt 0.25000 0
vt 0.25000 0.12500
vt 0.25000 0.25000
vt 0.25000 0.37500
vt 0.25000 0.50000
vt 0.25000 0.62500
vt 0.25000 0.75000
vt 0.25000 0.87500
vt 0.25000 1
vt 0.33333 0
vt 0.33333 0.12500
vt 0.33333 0.25000
vt 0.33333 0.37500
vt 0.33333 0.50000
vt 0.33333 0.62500
vt 0.33333 0.75000
vt 0.33333 0.87500
vt 0.33333 1
vt 0.41667 0
vt 0.41667 0.12500
vt 0.41667 0.25000
vt 0.41667 0.37500
vt 0.41667 0.50000
vt 0.41667 0.62500
vt 0.41667 0.75000
vt 0.41667 0.87500
vt 0.41667 1
vt 0.50000 0
vt 0.50000 0.12500
vt 0.50000 0.25000
vt 0.50000 0.37500
vt 0.50000 0.50000
vt 0.50000 0.62500
vt 0.50000 0.75000
vt 0.50000 0.87500
vt 0.50000 1
vt 0.58333 0
vt 0.58333 0.12500
vt 0.58333 0.25000
vt 0.58333 0.37500
vt 0.58333 0.50000
vt 0.58333 0.62500
vt 0.58333 0.75000
vt 0.58333 0.87500
vt 0.58333 1
vt 0.66667 0
vt 0.66667 0.12500
vt 0.66667 0.25000
vt 0.66667 0.37500
vt 0.66667 0.50000
vt 0.66667 0.62500
vt 0.66667 0.75000
vt 0.66667 0.87500
vt 0.66667 1
vt 0.75000 0
vt 0.75000 0.12500
vt 0.75000 0.25000
vt 0.75000 0.37500
vt 0.75000 0.50000
vt 0.75000 0.62500
vt 0.75000 0.75000
vt 0.75000 0.87500
vt 0.75000 1
vt 0.83333 0
vt 0.83333 0.12500
vt 0.83333 0.25000
vt 0.83333 0.37500
vt 0.83333 0.50000
vt 0.83333 0.62500
vt 0.83333 0.75000
vt 0.83333 0.87500
vt 0.83333 1
vt 0.91667 0
vt 0.91667 0.12500
vt 0.91667 0.25000
vt 0.91667 0.37500
vt 0.91667 0.50000
vt 0.91667 0.62500
vt 0.91667 0.75000
vt 0.91667 0.87500
vt 0.91667 1
vt 1 0.12500
vt 1 0.25000
vt 1 0.37500
vt 1 0.50000
vt 1 0.62500
vt 1 0.75000
vt 1 0.87500

# No. faces 128:

usemtl ___default___

f 10/11/138 2/2/130 1/1/129
f 17/20/153 10/11/138 1/10/129
f 24/29/168 17/20/153 1/19/129
f 31/38/175 24/29/168 1/28/129
f 38/47/190 31/38/175 1/37/129
f 45/56/205 38/47/190 1/46/129
f 52/65/212 45/56/205 1/55/129
f 59/74/227 52/65/212 1/64/129
f 66/83/242 59/74/227 1/73/129
f 73/92/249 66/83/242 1/82/129
f 80/101/264 73/92/249 1/91/129
f 2/109/130 80/101/264 1/100/129
f 11/12/139 3/3/131 2/2/130 10/11/138
f 18/21/154 11/12/139 10/11/138 17/20/153
f 25/30/169 18/21/154 17/20/153 24/29/168
f 32/39/176 25/30/169 24/29/168 31/38/175
f 39/48/191 32/39/176 31/38/175 38/47/190
f 46/57/206 39/48/191 38/47/190 45/56/205
f 53/66/213 46/57/206 45/56/205 52/65/212
f 60/75/228 53/66/213 52/65/212 59/74/227
f 67/84/243 60/75/228 59/74/227 66/83/242
f 74/93/250 67/84/243 66/83/242 73/92/249
f 81/102/265 74/93/250 73/92/249 80/101/264
f 3/110/131 81/102/265 80/101/264 2/109/130
f 12/13/142 4/4/132 3/3/131 11/12/139
f 26/31/170 19/22/157 18/21/154 25/30/169
f 33/40/179 26/31/170 25/30/169 32/39/176
f 47/58/207 40/49/194 39/48/191 46/57/206
f 54/67/216 47/58/207 46/57/206 53/66/213
f 68/85/244 61/76/231 60/75/228 67/84/243
f 75/94/253 68/85/244 67/84/243 74/93/250
f 4/111/132 82/103/268 81/102/265 3/110/131
f 13/14/145 5/5/133 4/4/132 12/13/142
f 20/23/160 13/14/145 12/13/142 19/22/157
f 27/32/171 20/23/160 19/22/157 26/31/170
f 34/41/182 27/32/171 26/31/170 33/40/179
f 41/50/197 34/41/182 33/40/179 40/49/194
f 48/59/208 41/50/197 40/49/194 47/58/207
f 55/68/219 48/59/208 47/58/207 54/67/216
f 62/77/234 55/68/219 54/67/216 61/76/231
f 69/86/245 62/77/234 61/76/231 68/85/244
f 76/95/256 69/86/245 68/85/244 75/94/253
f 83/104/271 76/95/256 75/94/253 82/103/268
f 5/112/133 83/104/271 82/103/268 4/111/132
f 14/15/146 6/6/134 5/5/133 13/14/145
f 21/24/161 14/15/146 13/14/145 20/23/160
f 28/33/172 21/24/161 20/23/160 27/32/171
f 35/42/183 28/33/172 27/32/171 34/41/182
f 42/51/198 35/42/183 34/41/182 41/50/197
f 49/60/209 42/51/198 41/50/197 48/59/208
f 56/69/220 49/60/209 48/59/208 55/68/219
f 63/78/235 56/69/220 55/68/219 62/77/234
f 70/87/246 63/78/235 62/77/234 69/86/245
f 77/96/257 70/87/246 69/86/245 76/95/256
f 84/105/272 77/96/257 76/95/256 83/104/271
f 6/113/134 84/105/272 83/104/271 5/112/133
f 15/16/149 7/7/135 6/6/134 14/15/146
f 29/34/173 22/25/164 21/24/161 28/33/172
f 36/43/186 29/34/173 28/33/172 35/42/183
f 50/61/210 43/52/201 42/51/198 49/60/209
f 57/70/223 50/61/210 49/60/209 56/69/220
f 71/88/247 64/79/238 63/78/235 70/87/246
f 78/97/260 71/88/247 70/87/246 77/96/257
f 7/114/135 85/106/275 84/105/272 6/113/134
f 16/17/152 8/8/136 7/7/135 15/16/149
f 23/26/167 16/17/152 15/16/149 22/25/164
f 30/35/174 23/26/167 22/25/164 29/34/173
f 37/44/189 30/35/174 29/34/173 36/43/186
f 44/53/204 37/44/189 36/43/186 43/52/201
f 51/62/211 44/53/204 43/52/201 50/61/210
f 58/71/226 51/62/211 50/61/210 57/70/223
f 65/80/241 58/71/226 57/70/223 64/79/238
f 72/89/248 65/80/241 64/79/238 71/88/247
f 79/98/263 72/89/248 71/88/247 78/97/260
f 86/107/278 79/98/263 78/97/260 85/106/275
f 8/115/136 86/107/278 85/106/275 7/114/135
f 9/9/137 8/8/136 16/17/152
f 9/18/137 16/17/152 23/26/167
f 9/27/137 23/26/167 30/35/174
f 9/36/137 30/35/174 37/44/189
f 9/45/137 37/44/189 44/53/204
f 9/54/137 44/53/204 51/62/211
f 9/63/137 51/62/211 58/71/226
f 9/72/137 58/71/226 65/80/241
f 9/81/137 65/80/241 72/89/248
f 9/90/137 72/89/248 79/98/263
f 9/99/137 79/98/263 86/107/278
f 9/108/137 86/107/278 8/115/136
f 90//288 87//279 84//274 85//277
f 87//281 88//282 77//259 84//273
f 88//284 89//285 78//262 77//258
f 89//287 90//290 85//276 78//261
f 90//289 89//286 88//283 87//280
f 94//300 91//291 81//267 82//270
f 91//293 92//294 74//252 81//266
f 92//296 93//297 75//255 74//251
f 93//299 94//302 82//269 75//254
f 94//301 93//298 92//295 91//292
f 98//312 95//303 63//237 64//240
f 95//305 96//306 56//222 63//236
f 96//308 97//309 57//225 56//221
f 97//311 98//314 64//239 57//224
f 98//313 97//310 96//307 95//304
f 102//324 99//315 60//230 61//233
f 99//317 100//318 53//215 60//229
f 100//320 101//321 54//218 53//214
f 101//323 102//326 61//232 54//217
f 102//325 101//322 100//319 99//316
f 106//336 103//327 18//156 19//159
f 103//329 104//330 11//141 18//155
f 104//332 105//333 12//144 11//140
f 105//335 106//338 19//158 12//143
f 106//337 105//334 104//331 103//328
f 110//348 107//339 39//193 40//196
f 107//341 108//342 32//178 39//192
f 108//344 109//345 33//181 32//177
f 109//347 110//350 40//195 33//180
f 110//349 109//346 108//343 107//340
f 114//360 111//351 21//163 22//166
f 111//353 112//354 14//148 21//162
f 112//356 113//357 15//151 14//147
f 113//359 114//362 22//165 15//150
f 114//361 113//358 112//355 111//352
f 118//372 115//363 42//200 43//203
f 115//365 116//366 35//185 42//199
f 116//368 117//369 36//188 35//184
f 117//371 118//374 43//202 36//187
f 118//373 117//370 116//367 115//364

# End of Object "object01"
